<?xml version="1.0" encoding="UTF-8"?>
<svg width="64px" height="64px" viewBox="0 0 64 64" version="1.1" xmlns="http://www.w3.org/2000/svg" xmlns:xlink="http://www.w3.org/1999/xlink">
    <!-- Generator: Sketch 43.2 (39069) - http://www.bohemiancoding.com/sketch -->
    <title>bitcoin wallet logo</title>
    <desc>Created with Sketch.</desc>
    <defs></defs>
    <g id="Page-1" stroke="none" stroke-width="1" fill="none" fill-rule="evenodd">
        <g id="bitcoin-wallet-landing-page" transform="translate(-608.000000, -199.000000)">
            <g id="bitcoin-wallet-logo" transform="translate(610.000000, 201.000000)">
                <g transform="translate(30.288637, 29.701496) rotate(-15.000000) translate(-30.288637, -29.701496) translate(10.788637, 15.001496)" fill-rule="nonzero" fill="#E98024">
                    <path d="M13.710878,20.9268293 L13.710878,20.2719146 L14.3772073,20.2719146 L14.3772073,20.9268293 C14.3772073,21.2944756 14.6754146,21.5926829 15.043061,21.5926829 C15.4107073,21.5926829 15.708439,21.2949512 15.708439,20.9268293 L15.708439,20.2719146 L16.8232683,20.2719146 C18.5659024,20.271439 19.9779878,18.8593537 19.9779878,17.1167195 C19.9779878,15.9980854 19.3944146,15.0183293 18.5173902,14.4585366 C19.0767073,13.9182439 19.4258049,13.1625 19.4262805,12.3235244 C19.4253293,10.6821951 18.0950488,9.35334146 16.4551463,9.35286585 L15.7089146,9.35286585 L15.7089146,8.73504878 C15.7089146,8.36740244 15.4111829,8.06919512 15.0435366,8.06919512 C14.6758902,8.06919512 14.3776829,8.36692683 14.3776829,8.73504878 L14.3776829,9.35286585 L13.7113537,9.35286585 L13.7113537,8.73504878 C13.7113537,8.36740244 13.4131463,8.06919512 13.0455,8.06919512 C12.6778537,8.06919512 12.3796463,8.36692683 12.3796463,8.73504878 L12.3796463,9.35286585 L11.7713415,9.35286585 C11.4036951,9.35286585 11.1054878,9.65059756 11.1054878,10.0187195 C11.1054878,10.3868415 11.4036951,10.6845732 11.7713415,10.6845732 L12.3786951,10.6845732 L12.3786951,18.9402073 L11.7713415,18.9402073 C11.4036951,18.9402073 11.1054878,19.237939 11.1054878,19.606061 C11.1054878,19.9741829 11.4036951,20.2719146 11.7713415,20.2719146 L12.3786951,20.2719146 L12.3786951,20.9268293 C12.3786951,21.2944756 12.6769024,21.5926829 13.0445488,21.5926829 C13.4121951,21.5926829 13.710878,21.2944756 13.710878,20.9268293 Z M13.710878,10.6840976 L16.455622,10.6840976 C16.9098293,10.6840976 17.3155244,10.8662561 17.6146829,11.1639878 C17.9124146,11.4626707 18.0950488,11.8683659 18.0950488,12.3230488 C18.0950488,12.7777317 17.9124146,13.1829512 17.6146829,13.4816341 C17.3155244,13.7793659 16.9103049,13.9615244 16.455622,13.962 L13.710878,13.962 L13.710878,10.6840976 Z M13.710878,15.2937073 L16.8237439,15.2937073 C17.3293171,15.2937073 17.7811463,15.4967927 18.113122,15.8278171 C18.4436707,16.1597927 18.6462805,16.6111463 18.6467561,17.1167195 C18.6462805,17.6222927 18.4436707,18.074122 18.113122,18.4060976 C17.7811463,18.737122 17.3293171,18.9397317 16.8237439,18.9402073 L13.710878,18.9402073 L13.710878,15.2937073 Z" id="Shape"></path>
                    <path d="M30.320122,4.51829268 L31.7469512,4.51829268 C32.1407561,4.51829268 32.4603659,4.19868293 32.4603659,3.80487805 C32.4603659,3.41059756 32.1407561,3.09146341 31.7469512,3.09146341 L30.320122,3.09146341 C29.9263171,3.09146341 29.6067073,3.41059756 29.6067073,3.80487805 C29.6067073,4.19868293 29.9263171,4.51829268 30.320122,4.51829268 Z" id="Shape"></path>
                    <path d="M5.54560976,3.09146341 L4.63719512,3.09146341 C3.71689024,3.09431707 2.97541463,3.83531707 2.97256098,4.75609756 L2.97256098,5.10662195 C2.97256098,5.50042683 3.29217073,5.82003659 3.68597561,5.82003659 C4.07978049,5.82003659 4.39939024,5.50042683 4.39939024,5.10662195 L4.39939024,4.75609756 C4.39939024,4.69141463 4.42459756,4.63529268 4.46978049,4.58868293 C4.51639024,4.54302439 4.57203659,4.51829268 4.63719512,4.51829268 L5.54560976,4.51829268 C5.93941463,4.51829268 6.25902439,4.19868293 6.25902439,3.80487805 C6.25902439,3.41059756 5.93941463,3.09146341 5.54560976,3.09146341 Z" id="Shape"></path>
                    <path d="M3.68597561,22.3365366 C4.07978049,22.3365366 4.39939024,22.0169268 4.39939024,21.623122 L4.39939024,18.8702927 C4.39939024,18.4764878 4.07978049,18.156878 3.68597561,18.156878 C3.29217073,18.156878 2.97256098,18.4764878 2.97256098,18.8702927 L2.97256098,21.623122 C2.97256098,22.0169268 3.29217073,22.3365366 3.68597561,22.3365366 Z" id="Shape"></path>
                    <path d="M5.53990244,24.9695122 L4.63719512,24.9695122 C4.57203659,24.9695122 4.51639024,24.9443049 4.46978049,24.899122 C4.42459756,24.8525122 4.39939024,24.7963902 4.39939024,24.7317073 L4.39939024,24.3754756 C4.39939024,23.9816707 4.07978049,23.662061 3.68597561,23.662061 C3.29217073,23.662061 2.97256098,23.9811951 2.97256098,24.3754756 L2.97256098,24.7317073 C2.97541463,25.6524878 3.71689024,26.3934878 4.63719512,26.3963415 L5.53990244,26.3963415 C5.93370732,26.3963415 6.25331707,26.0767317 6.25331707,25.6829268 C6.25331707,25.2886463 5.93418293,24.9695122 5.53990244,24.9695122 Z" id="Shape"></path>
                    <path d="M8.29796341,4.51829268 L11.0507927,4.51829268 C11.4445976,4.51829268 11.7642073,4.19868293 11.7642073,3.80487805 C11.7642073,3.41059756 11.4445976,3.09146341 11.0507927,3.09146341 L8.29796341,3.09146341 C7.90415854,3.09146341 7.58454878,3.41059756 7.58454878,3.80487805 C7.58454878,4.19868293 7.90415854,4.51829268 8.29796341,4.51829268 Z" id="Shape"></path>
                    <path d="M13.803622,4.51829268 L16.5559756,4.51829268 C16.9497805,4.51829268 17.2693902,4.19868293 17.2693902,3.80487805 C17.2693902,3.41059756 16.9497805,3.09146341 16.5559756,3.09146341 L13.803622,3.09146341 C13.4093415,3.09146341 13.0902073,3.41059756 13.0902073,3.80487805 C13.0902073,4.19868293 13.4093415,4.51829268 13.803622,4.51829268 Z" id="Shape"></path>
                    <path d="M3.68597561,11.3256951 C4.07978049,11.3256951 4.39939024,11.006561 4.39939024,10.6122805 L4.39939024,7.85945122 C4.39939024,7.46517073 4.07978049,7.14603659 3.68597561,7.14603659 C3.29217073,7.14603659 2.97256098,7.46517073 2.97256098,7.85945122 L2.97256098,10.6122805 C2.97256098,11.0060854 3.29217073,11.3256951 3.68597561,11.3256951 Z" id="Shape"></path>
                    <path d="M24.8144634,4.51829268 L27.5672927,4.51829268 C27.9610976,4.51829268 28.2807073,4.19868293 28.2807073,3.80487805 C28.2807073,3.41059756 27.9610976,3.09146341 27.5672927,3.09146341 L24.8144634,3.09146341 C24.4206585,3.09146341 24.1010488,3.41059756 24.1010488,3.80487805 C24.1010488,4.19868293 24.4206585,4.51829268 24.8144634,4.51829268 Z" id="Shape"></path>
                    <path d="M3.68597561,16.830878 C4.07978049,16.830878 4.39939024,16.5117439 4.39939024,16.1174634 L4.39939024,13.3646341 C4.39939024,12.9703537 4.07978049,12.6512195 3.68597561,12.6512195 C3.29217073,12.6512195 2.97256098,12.9703537 2.97256098,13.3646341 L2.97256098,16.1174634 C2.97256098,16.5117439 3.29217073,16.830878 3.68597561,16.830878 Z" id="Shape"></path>
                    <path d="M22.0621098,3.09146341 L19.3092805,3.09146341 C18.915,3.09146341 18.5958659,3.41059756 18.5958659,3.80487805 C18.5958659,4.19868293 18.915,4.51829268 19.3092805,4.51829268 L22.0621098,4.51829268 C22.4559146,4.51829268 22.7755244,4.19868293 22.7755244,3.80487805 C22.7755244,3.41059756 22.4559146,3.09146341 22.0621098,3.09146341 Z" id="Shape"></path>
                    <path d="M27.562061,24.9695122 L24.8092317,24.9695122 C24.4149512,24.9695122 24.0958171,25.2886463 24.0958171,25.6829268 C24.0958171,26.0767317 24.4149512,26.3963415 24.8092317,26.3963415 L27.562061,26.3963415 C27.9558659,26.3963415 28.2754756,26.0767317 28.2754756,25.6829268 C28.2754756,25.2886463 27.9558659,24.9695122 27.562061,24.9695122 Z" id="Shape"></path>
                    <path d="M11.0460366,24.9695122 L8.29320732,24.9695122 C7.89892683,24.9695122 7.57979268,25.2886463 7.57979268,25.6829268 C7.57979268,26.0767317 7.89892683,26.3963415 8.29320732,26.3963415 L11.0460366,26.3963415 C11.4398415,26.3963415 11.7594512,26.0767317 11.7594512,25.6829268 C11.7594512,25.2886463 11.4398415,24.9695122 11.0460366,24.9695122 Z" id="Shape"></path>
                    <path d="M16.5512195,24.9695122 L13.7983902,24.9695122 C13.4045854,24.9695122 13.0849756,25.2886463 13.0849756,25.6829268 C13.0849756,26.0767317 13.4045854,26.3963415 13.7983902,26.3963415 L16.5512195,26.3963415 C16.9450244,26.3963415 17.2646341,26.0767317 17.2646341,25.6829268 C17.2646341,25.2886463 16.9450244,24.9695122 16.5512195,24.9695122 Z" id="Shape"></path>
                    <path d="M22.0564024,24.9695122 L19.3040488,24.9695122 C18.9097683,24.9695122 18.5906341,25.2886463 18.5906341,25.6829268 C18.5906341,26.0767317 18.9097683,26.3963415 19.3040488,26.3963415 L22.0564024,26.3963415 C22.4502073,26.3963415 22.7698171,26.0767317 22.7698171,25.6829268 C22.7698171,25.2886463 22.4502073,24.9695122 22.0564024,24.9695122 Z" id="Shape"></path>
                    <path d="M30.320122,26.3963415 L31.7469512,26.3963415 C32.1407561,26.3963415 32.4603659,26.0767317 32.4603659,25.6829268 C32.4603659,25.2886463 32.1407561,24.9695122 31.7469512,24.9695122 L30.320122,24.9695122 C29.9263171,24.9695122 29.6067073,25.2886463 29.6067073,25.6829268 C29.6067073,26.0767317 29.9263171,26.3963415 30.320122,26.3963415 Z" id="Shape"></path>
                    <path d="M36.6219512,10.4634146 L35.7896341,10.4634146 L35.7896341,2.85365854 C35.7867805,1.41018293 34.6172561,0.240658537 33.1737805,0.237804878 L2.7347561,0.237804878 C1.29128049,0.240658537 0.121756098,1.41018293 0.118902439,2.85365854 L0.118902439,26.6341463 C0.121756098,28.077622 1.29128049,29.2471463 2.7347561,29.25 L33.1737805,29.25 C34.6172561,29.2471463 35.7867805,28.077622 35.7896341,26.6341463 L35.7896341,19.5 L36.6219512,19.5 C37.8647195,19.5 38.8810976,18.483622 38.8810976,17.2413293 L38.8810976,12.7220854 C38.8810976,11.4797927 37.8647195,10.4634146 36.6219512,10.4634146 Z M34.3628049,26.6341463 C34.3628049,26.9608902 34.231061,27.2548171 34.0132317,27.4735976 C33.7944512,27.6914268 33.5005244,27.8231707 33.1737805,27.8231707 L2.7347561,27.8231707 C2.4080122,27.8231707 2.11408537,27.6909512 1.89530488,27.4735976 C1.67747561,27.2548171 1.54573171,26.9608902 1.54573171,26.6341463 L1.54573171,2.85365854 C1.54573171,2.52691463 1.67747561,2.2329878 1.89530488,2.01420732 C2.11408537,1.79637805 2.4080122,1.66463415 2.7347561,1.66463415 L33.1737805,1.66463415 C33.5005244,1.66463415 33.7944512,1.79685366 34.0132317,2.01420732 C34.231061,2.2329878 34.3628049,2.52691463 34.3628049,2.85365854 L34.3628049,10.4634146 L29.6067073,10.4634146 C27.1116585,10.4634146 25.0884146,12.4861829 25.0884146,14.9817073 C25.0884146,17.4767561 27.1116585,19.5 29.6067073,19.5 L34.3628049,19.5 L34.3628049,26.6341463 Z M37.4542683,17.2413293 C37.4542683,17.6922073 37.0728293,18.0731707 36.6219512,18.0731707 L29.6067073,18.0731707 C27.902122,18.0731707 26.5152439,16.6862927 26.5152439,14.9817073 C26.5152439,13.277122 27.902122,11.8902439 29.6067073,11.8902439 L36.6219512,11.8902439 C37.0728293,11.8902439 37.4542683,12.2712073 37.4542683,12.7220854 L37.4542683,17.2413293 Z" id="Shape"></path>
                    <circle id="Oval" cx="30.0818415" cy="14.9831341" r="1.18902439"></circle>
                </g>
                <circle id="Oval-2" stroke="#E98024" stroke-width="3" cx="30" cy="30" r="30"></circle>
            </g>
        </g>
    </g>
</svg>